<svg xmlns="http://www.w3.org/2000/svg" viewBox="0 0 64 64" fill="none">
  <defs>
    <linearGradient id="g" x1="0" y1="0" x2="64" y2="64" gradientUnits="userSpaceOnUse">
      <stop offset="0%" stop-color="#06B6D4"/>
      <stop offset="100%" stop-color="#10B981"/>
    </linearGradient>
  </defs>
  <rect width="64" height="64" rx="14" fill="#0A0A0A"/>
  <path d="M32 12C24 12 16 18 16 28c0 6 3 10 8 13v7a2 2 0 002 2h12a2 2 0 002-2v-7c5-3 8-7 8-13 0-10-8-16-16-16z" stroke="url(#g)" stroke-width="3" fill="none" stroke-linecap="round" stroke-linejoin="round"/>
  <path d="M24 52h16M26 56h12" stroke="url(#g)" stroke-width="2.5" stroke-linecap="round"/>
  <circle cx="27" cy="28" r="2.5" fill="url(#g)"/>
  <circle cx="37" cy="28" r="2.5" fill="url(#g)"/>
  <path d="M27 34c0 0 2 3 5 3s5-3 5-3" stroke="url(#g)" stroke-width="2" stroke-linecap="round" fill="none"/>
</svg>
